<svg xmlns="http://www.w3.org/2000/svg" viewBox="0 0 1085.57 261.58"><defs><style>.cls-1{fill:#fff;}</style></defs><title>Recurso 1</title><g id="Capa_2" data-name="Capa 2"><g id="Capa_1-2" data-name="Capa 1"><path class="cls-1" d="M138.76,217.81a7,7,0,0,0-6.34,3.7c-2.54,4.13-.18,9.8,5.63,13.48l.34.24c8.41,6,53.41,35.09,114,23.76l.58-.12c60.19-13.05,90.34-57.37,95.78-66.12.11-.19.19-.31.22-.35,3.92-5.65,3.89-11.8-.06-14.61-6.08-4.33-11.1,1.27-15.13,5.77-.18.22-19.78,23.63-52,39.3a148.58,148.58,0,0,1-34,11.83l-.08,0A148.87,148.87,0,0,1,211.77,237C176,235.05,148.86,221.09,148.59,221,145.5,219.48,142,217.81,138.76,217.81Z"/><path class="cls-1" d="M113.24,7.72V32.11a5.67,5.67,0,0,1-5.67,5.67H39.83V61.84h51a5.67,5.67,0,0,1,5.67,5.67V91.8a5.67,5.67,0,0,1-5.67,5.67H39.83V143.2a5.67,5.67,0,0,1-5.67,5.67H5.67A5.67,5.67,0,0,1,0,143.2V7.72A5.67,5.67,0,0,1,5.67,2.05h101.9A5.67,5.67,0,0,1,113.24,7.72Z"/><path class="cls-1" d="M211.34,134.89a55.49,55.49,0,0,1-39.93,16,55.69,55.69,0,0,1-40-16q-16.68-16-16.68-37.42t16.68-37.42a55.73,55.73,0,0,1,40-16,55.53,55.53,0,0,1,39.93,16Q228,76.07,228,97.47T211.34,134.89Zm-53.86-21.81q6,6.4,13.93,6.4t13.92-6.4a22,22,0,0,0,6-15.61,22,22,0,0,0-6-15.61q-6-6.4-13.92-6.4t-13.93,6.4a22,22,0,0,0-6,15.61A22,22,0,0,0,157.48,113.08Z"/><path class="cls-1" d="M335.67,134.89a57.82,57.82,0,0,1-79.92,0q-16.68-16-16.68-37.42t16.68-37.42a57.82,57.82,0,0,1,79.92,0q16.63,16,16.63,37.42T335.67,134.89Zm-53.86-21.81q6,6.4,13.93,6.4t13.92-6.4a22,22,0,0,0,6-15.61,22,22,0,0,0-6-15.61q-6-6.4-13.92-6.4t-13.93,6.4a22,22,0,0,0-6,15.61A22,22,0,0,0,281.81,113.08Z"/><path class="cls-1" d="M446.22,2.05h24.29a5.67,5.67,0,0,1,5.67,5.67V143.2a5.67,5.67,0,0,1-5.67,5.67H446.22a5.67,5.67,0,0,1-5.67-5.67v-6.92c-.28.4-.65.93-1.13,1.58a31.42,31.42,0,0,1-3.48,3.48,43.36,43.36,0,0,1-5.89,4.51,33.12,33.12,0,0,1-8.14,3.53,36.66,36.66,0,0,1-10.75,1.54q-19.25,0-33.22-15.16T364,97.52q0-23.08,14-38.29T411.16,44a35.66,35.66,0,0,1,16.18,3.69q7.37,3.69,10.24,7.17l3,3.79V7.72A5.67,5.67,0,0,1,446.22,2.05ZM434.56,81.86q-6-6.4-13.93-6.4t-13.92,6.4a22,22,0,0,0-6,15.61,22,22,0,0,0,6,15.61q6,6.4,13.92,6.4t13.93-6.4a22,22,0,0,0,6-15.61A22,22,0,0,0,434.56,81.86Z"/><path class="cls-1" d="M530,148.87H505.72a5.67,5.67,0,0,1-5.67-5.67V7.72a5.67,5.67,0,0,1,5.67-5.67H530a5.67,5.67,0,0,1,5.67,5.67V143.2A5.67,5.67,0,0,1,530,148.87Z"/><path class="cls-1" d="M649.94,134.89a57.82,57.82,0,0,1-79.92,0q-16.68-16-16.69-37.42T570,60.05a57.85,57.85,0,0,1,79.92,0q16.63,16,16.63,37.42T649.94,134.89Zm-53.86-21.81q6,6.4,13.93,6.4t13.92-6.4a22,22,0,0,0,6-15.61,22,22,0,0,0-6-15.61q-6-6.4-13.92-6.4t-13.93,6.4a22,22,0,0,0-6,15.61A22,22,0,0,0,596.08,113.08Z"/><path class="cls-1" d="M747.28,76.53a3,3,0,0,1-4,.3,20.23,20.23,0,0,0-12.73-4.55,11.23,11.23,0,0,0-6.91,1.9,5.43,5.43,0,0,0-2.51,4.4c0,1.67,1.47,3.11,4.4,4.3s6.54,2.49,10.8,3.89A99.84,99.84,0,0,1,749,91.94a27.45,27.45,0,0,1,10.7,9.58q4.39,6.49,4.4,15.92,0,14-11.83,23.75t-32.2,9.73a71,71,0,0,1-17.2-2,50,50,0,0,1-13.2-5,103.2,103.2,0,0,1-8.81-5.78,22.11,22.11,0,0,1-5.22-5h0a3,3,0,0,1,.11-4l13.7-14.41a3,3,0,0,1,4.39.07l.33.36c1,1.13,3.26,2.66,6.71,4.61a21.59,21.59,0,0,0,10.8,2.92,11.19,11.19,0,0,0,6.91-1.9,5.46,5.46,0,0,0,2.51-4.4q0-2.51-4.41-4.3t-10.8-3.89a106.23,106.23,0,0,1-12.69-5.12,27,27,0,0,1-10.7-9.52q-4.41-6.51-4.41-15.92,0-14,11.88-23.81T722.25,44a60.38,60.38,0,0,1,22.32,4q10.14,4,14.34,7.78l2,1.94a3,3,0,0,1,.11,4.22Z"/><path class="cls-1" d="M870.24,134.89a57.81,57.81,0,0,1-79.91,0q-16.7-16-16.69-37.42t16.69-37.42a57.84,57.84,0,0,1,79.91,0q16.63,16,16.64,37.42T870.24,134.89Zm-53.86-21.81q6,6.4,13.93,6.4t13.92-6.4a22,22,0,0,0,6-15.61,22,22,0,0,0-6-15.61q-6-6.4-13.92-6.4t-13.93,6.4a22,22,0,0,0-6,15.61A22,22,0,0,0,816.38,113.08Z"/><path class="cls-1" d="M963.94,81.81H945.53v63.46a3.6,3.6,0,0,1-3.6,3.6H913.49a3.6,3.6,0,0,1-3.6-3.6V81.81h-10a3.6,3.6,0,0,1-3.59-3.6V53.87a3.6,3.6,0,0,1,3.59-3.6h10V39.83q0-19.45,9.63-29.64T946.55,0a66.6,66.6,0,0,1,10.29.82,64.33,64.33,0,0,1,8,1.64h0a3.59,3.59,0,0,1,2.66,3.47V28.58a3.58,3.58,0,0,1-4.32,3.52,30.92,30.92,0,0,0-6.13-.67c-3.61,0-6.45.94-8.49,2.82A9.94,9.94,0,0,0,945.53,42v8.29h18.41a3.6,3.6,0,0,1,3.6,3.6V78.21A3.6,3.6,0,0,1,963.94,81.81Z"/><path class="cls-1" d="M1011.53,146.82l-36-96.15a3.4,3.4,0,0,1,3.18-4.6H1009a3.4,3.4,0,0,1,3.24,2.38l18.19,57.42,18.09-57.42a3.4,3.4,0,0,1,3.24-2.38h30.37a3.4,3.4,0,0,1,3.18,4.61l-37.07,98.19q-8.6,22.83-19.4,33.43a35.51,35.51,0,0,1-25.75,10.6,62.82,62.82,0,0,1-10-.82,49.19,49.19,0,0,1-7.38-1.64h0a3.42,3.42,0,0,1-2.45-3.27V163.1a3.41,3.41,0,0,1,4.13-3.37,31,31,0,0,0,6.31.71q11-.1,15.77-9.52Z"/></g></g></svg>